<?xml version="1.0" encoding="utf-8"?>
<!-- Generator: Adobe Illustrator 27.4.1, SVG Export Plug-In . SVG Version: 6.00 Build 0)  -->
<svg version="1.1" id="Layer_1" xmlns="http://www.w3.org/2000/svg" xmlns:xlink="http://www.w3.org/1999/xlink" x="0px" y="0px"
	 viewBox="0 0 240 240" style="enable-background:new 0 0 240 240;" xml:space="preserve">
<style type="text/css">
	.st0{filter:url(#editing-extrusion);}
	.st1{fill:#CCCCCC;}
</style>
<filter  height="300%" id="editing-extrusion" width="300%" x="-100%" y="-100%">
	<feFlood  flood-color="#444" result="color1"></feFlood>
	
		<feConvolveMatrix  divisor="1" edgeMode="duplicate" in="SourceAlpha" kernelMatrix="1 0 0 0 0 0 0 0 0 1 0 0 0 0 0 0 0 0 1 0 0 0 0 0 0 0 0 1 0 0 0 0 0 0 0 0 1 0 0 0 0 0 0 0 0 1 0 0 0 0 0 0 0 0 1 0 0 0 0 0 0 0 0 1" order="8,8" result="extrude">
		</feConvolveMatrix>
	<feComposite  in="color1" in2="extrude" operator="in" result="comp-extrude"></feComposite>
	<feOffset  dx="4" dy="4" in="comp-extrude" result="offset-extrude"></feOffset>
	<feMerge>
		<feMergeNode  in="offset-extrude"></feMergeNode>
		<feMergeNode  in="SourceGraphic"></feMergeNode>
	</feMerge>
</filter>
<g class="st0">
	<g transform="translate(177.59322237968445, 108.8549976348877)">
		<path class="st1" d="M-95.3,31.6L-95.3,31.6L-95.3,31.6c-4.4,3.7-8.1,5.5-11,5.5l0,0l0,0c-2.9,0-4.8-2.1-5.8-6.3l0,0l0,0
			c-0.3-1.7-0.5-4.3-0.6-7.7l0,0l0,0c-7.5,8-13.1,15.2-16.8,21.6l0,0l0,0c-0.2,0.2-0.4,0.4-0.7,0.4l0,0l0,0c-0.7,0-1.1-0.3-1.1-1
			l0,0l0,0c0-0.2,0.1-0.3,0.2-0.5l0,0l0,0c5.7-9,11.9-16.9,18.5-23.7l0,0l0,0c0.2-8.4,0.4-13.1,0.5-14.2l0,0l0,0
			c-1.4,0.3-4.4,3.9-9,10.7l0,0l0,0c-2.3,3.4-4.3,6.1-6,7.9l0,0l0,0c-1.7,1.8-2.7,2.9-3.1,3.2l0,0l0,0c-0.3,0.3-0.7,0.4-1,0.4l0,0
			l0,0c-0.3,0-0.5-0.2-0.5-0.5l0,0l0,0c0-0.3,1-1.6,2.9-3.7l0,0l0,0c2-2.2,4.6-5.7,7.8-10.7l0,0l0,0c3.3-4.9,5.6-8,7-9.3l0,0l0,0
			c1.4-1.3,2.7-1.9,3.9-1.9l0,0l0,0c1.2,0,2.1,0.2,2.7,0.5l0,0l0,0c0.6,0.3,0.8,0.9,0.6,1.7l0,0l0,0c-0.2,0.8-0.3,1.5-0.4,2.2l0,0
			l0,0c-0.1,0.6-0.2,1.3-0.2,2.1l0,0l0,0c-0.4,2.9-0.6,5.2-0.6,7.1l0,0l0,0c3-2.9,9.8-8.8,20.3-17.8l0,0l0,0
			c0.1-0.1,0.3-0.2,0.6-0.2l0,0l0,0c0.3,0,0.7,0.3,1.2,0.8l0,0l0,0c0.5,0.5,0.7,1,0.7,1.6l0,0l0,0c0,0.5-0.2,1-0.7,1.5l0,0l0,0
			c-2,1.6-5.4,4.2-10.3,7.7l0,0l0,0c-4.9,3.5-8.9,6.8-12.1,9.7l0,0l0,0c-0.1,1.3-0.1,3-0.1,5.2l0,0l0,0c0,2.2,0.3,4.2,0.8,6.1l0,0
			l0,0c0.7,2.4,2.1,3.6,4.1,3.6l0,0l0,0c3.5,0,8.9-4.2,16.2-12.6l0,0l0,0c0.6-0.6,1.1-0.9,1.4-0.9l0,0l0,0c0.3,0,0.5,0.2,0.5,0.6
			l0,0l0,0c0,0.4-0.2,0.9-0.7,1.4l0,0l0,0C-90,26.5-93,29.7-95.3,31.6z M-77.7,29.8L-77.7,29.8c0.9,0,1.8,0.3,2.6,0.9l0,0l0,0
			c0.8,0.6,1.2,1.3,1.2,2.1l0,0l0,0c0,0.8-0.4,1.4-1.2,2l0,0l0,0c-0.8,0.6-1.6,0.9-2.5,0.9l0,0l0,0c-0.9,0-1.8-0.3-2.5-1l0,0l0,0
			c-0.8-0.6-1.2-1.4-1.2-2.3l0,0l0,0C-81.2,30.7-80.1,29.8-77.7,29.8L-77.7,29.8z M-51.3,33.3L-51.3,33.3L-51.3,33.3
			c-5.4,4.2-9.4,6.3-11.9,6.3l0,0l0,0c-1.3,0-2.3-0.7-3-2l0,0l0,0c-0.6-1.3-1-2.7-1-4.3l0,0l0,0c0-2.9,1.2-7.4,3.7-13.2l0,0l0,0
			c2.5-5.9,4.9-8.8,7.1-8.8l0,0l0,0c1.2,0,2.2,2.3,3,6.9l0,0l0,0c0.8,4.6,1.7,7.9,2.5,10l0,0l0,0c4.2-4.4,10.2-11.8,18.1-22.1l0,0
			l0,0C-22.7-7-16.1-14.1-12.9-15.3l0,0l0,0c1.1-0.4,2.2-0.6,3.4-0.6l0,0l0,0c1.2,0,2.1,0.2,2.9,0.7l0,0l0,0
			c0.8,0.5,1.2,1.1,1.2,1.8l0,0l0,0c0,1-0.9,1.7-2.7,1.8l0,0l0,0c-2.1,1.2-5.5,4-9.9,8.5l0,0l0,0c-4.5,4.4-8.1,8.4-10.8,12.2l0,0
			l0,0c-6.6,9.1-13.3,16.6-20.2,22.4l0,0l0,0c3.4,5.1,8.8,7.6,16.2,7.6l0,0l0,0c0.8,0,2-0.1,3.6-0.2l0,0l0,0
			c17.1-1.6,29.1-9,36.2-22.2l0,0l0,0c2.9-5.3,4.3-10.5,4.3-15.6l0,0l0,0c0-5.2-1.9-9.8-5.6-13.9l0,0l0,0c-3-3.4-6.3-5.5-9.8-6.3
			l0,0l0,0c-3.5-0.8-7.1-1.2-10.8-1.2l0,0l0,0c-9.4,0-18.2,2.2-26.1,6.5l0,0l0,0c-8.4,4.6-12.6,9.8-12.6,15.5l0,0l0,0
			c0,1.5,0.4,2.8,1.2,3.8l0,0l0,0c0.8,1,1.4,1.5,1.7,1.6l0,0h-0.5l0,0c-1.6-0.3-3-1.1-4.2-2.4l0,0l0,0c-1.3-1.6-2-3.3-2-5.1l0,0l0,0
			c0-6.1,3.8-11.4,11.5-15.8l0,0l0,0c7.7-4.4,16.7-6.6,27.1-6.6l0,0l0,0c4.8,0,9.7,0.6,14.7,1.7l0,0l0,0c5,1.1,9.6,3.7,13.7,7.9l0,0
			l0,0c4.7,4.9,7.1,10.5,7.1,16.6l0,0l0,0c0,4.6-1.4,9.4-4.1,14.3l0,0l0,0C7.9,26.2,1,32.4-8.3,36.4l0,0l0,0
			c-7.4,3.1-15.4,4.7-24,4.7l0,0l0,0C-40.9,41.1-47.2,38.5-51.3,33.3z M-63.8,33L-63.8,33L-63.8,33c0,1.9,0.4,3.6,1.1,5l0,0l0,0
			c2.6-1.2,5.8-3.6,9.6-7.3l0,0l0,0c-1.8-2.9-2.9-5.3-3.4-6.9l0,0l0,0c-0.5-1.7-0.8-3.9-1-6.7l0,0l0,0C-61.7,23.1-63.8,28.4-63.8,33
			z M-50.7,7.2L-50.7,7.2L-50.7,7.2c0.1,0,0.1,0,0.2-0.1l0,0l0,0c0,0.1,0,0.2-0.1,0.2l0,0l0,0C-50.6,7.3-50.6,7.3-50.7,7.2z"/>
	</g>
</g>
</svg>
