<?xml version="1.0" standalone="no"?>
<!DOCTYPE svg PUBLIC "-//W3C//DTD SVG 20010904//EN"
 "http://www.w3.org/TR/2001/REC-SVG-20010904/DTD/svg10.dtd">
<svg version="1.0" xmlns="http://www.w3.org/2000/svg"
 width="700.000000pt" height="700.000000pt" viewBox="0 0 700.000000 700.000000"
 preserveAspectRatio="xMidYMid meet">
<metadata>
Created by potrace 1.14, written by Peter Selinger 2001-2017
</metadata>
<g transform="translate(0.000000,700.000000) scale(0.100000,-0.100000)"
fill="#000000" stroke="none">
<path d="M4380 4474 c-244 -36 -419 -98 -594 -211 -178 -115 -276 -261 -278
-417 -2 -91 17 -120 200 -303 35 -35 67 -61 72 -58 4 3 10 1 12 -3 1 -5 16
-12 32 -16 l28 -7 -21 28 c-45 59 -51 70 -55 117 -5 49 27 173 48 188 6 4 7 8
2 8 -6 0 -1 7 10 15 10 8 15 15 10 15 -14 0 125 132 174 165 25 16 47 33 50
36 25 30 350 165 443 184 15 3 38 7 52 10 62 12 83 16 130 21 28 3 57 7 65 10
8 3 -3 -9 -25 -27 -111 -89 -274 -276 -560 -643 -201 -259 -373 -470 -384
-474 -5 -1 -11 17 -15 40 -16 101 -38 151 -89 205 -27 29 -53 50 -58 47 -5 -3
-9 1 -9 8 0 10 -2 10 -9 -1 -7 -10 -14 -2 -29 31 -29 67 -63 70 -127 10 -65
-62 -159 -261 -209 -443 -46 -169 -19 -308 65 -334 11 -4 19 -13 19 -21 0 -19
86 -112 120 -129 26 -14 54 -15 66 -3 3 4 12 4 20 1 15 -5 104 34 116 51 4 6
8 7 8 3 0 -8 112 64 146 95 21 19 22 19 80 -30 94 -78 191 -130 276 -146 13
-2 43 -9 68 -15 43 -10 364 -9 405 2 19 4 86 16 130 23 56 8 159 36 173 47 6
5 12 7 12 3 0 -5 45 10 115 39 11 5 22 9 25 9 10 2 185 91 190 97 3 3 28 21
55 39 73 50 193 160 247 228 68 85 182 286 193 340 2 12 9 30 15 41 6 12 8 21
6 21 -3 0 -1 12 4 26 18 47 34 234 21 234 -4 0 -6 15 -6 33 2 62 -52 199 -116
294 -32 48 -245 265 -330 335 -152 128 -421 197 -754 195 -82 0 -188 -6 -235
-13z m536 -68 c12 -2 44 -7 73 -11 29 -4 69 -13 89 -21 31 -12 32 -13 7 -8
-16 4 -39 8 -50 9 -11 2 -38 6 -60 9 -120 18 -333 24 -397 12 -15 -2 -30 -1
-32 3 -3 4 18 9 47 10 28 1 53 4 55 6 5 4 242 -3 268 -9z m-389 -12 c-3 -3
-12 -4 -19 -1 -8 3 -5 6 6 6 11 1 17 -2 13 -5z m-70 -10 c-3 -3 -12 -4 -19 -1
-8 3 -5 6 6 6 11 1 17 -2 13 -5z m633 -138 c25 -2 56 -7 70 -10 14 -4 38 -9
55 -12 16 -3 50 -15 75 -26 25 -12 48 -22 52 -22 4 -1 22 -15 40 -32 41 -38
93 -143 112 -224 14 -57 15 -215 2 -270 -23 -100 -33 -134 -62 -204 -154 -365
-443 -610 -841 -710 -95 -24 -120 -28 -265 -45 -67 -7 -173 -6 -228 3 -47 7
-169 47 -175 57 -3 4 4 16 16 26 35 29 271 267 310 315 21 23 50 59 65 78 16
19 31 37 34 40 3 3 19 23 36 45 16 22 34 45 39 51 6 6 35 45 65 87 30 43 58
77 62 77 4 0 8 5 8 10 0 6 8 18 18 28 9 10 32 36 51 58 63 74 101 114 101 108
0 -3 12 9 28 27 28 35 156 159 207 203 78 66 91 76 119 90 17 8 44 18 60 21
15 3 26 9 22 12 -3 3 -1 12 5 19 6 7 8 22 4 33 -8 27 -101 110 -131 117 -13 3
-24 12 -24 19 0 7 -3 20 -6 28 -4 11 0 14 13 12 10 -2 38 -6 63 -9z m-1640
-1016 c-6 -11 -13 -20 -16 -20 -2 0 0 9 6 20 6 11 13 20 16 20 2 0 0 -9 -6
-20z m-30 -65 c-11 -19 -19 -36 -19 -38 0 -1 -4 -15 -10 -30 -6 -16 -11 -33
-11 -38 0 -5 -4 -9 -8 -9 -5 0 -9 -6 -9 -14 0 -20 -34 -128 -39 -123 -16 16
84 287 107 287 5 0 0 -16 -11 -35z m154 -288 c-31 -28 -62 -56 -70 -60 -25
-14 -2 66 53 181 l16 33 29 -51 29 -50 -57 -53z m276 109 c0 -2 -8 -10 -17
-17 -16 -13 -17 -12 -4 4 13 16 21 21 21 13z m1320 -101 c0 -4 -78 -60 -115
-82 -100 -59 -287 -138 -299 -126 -3 4 -6 2 -6 -4 0 -9 -25 -16 -100 -29 -8
-1 -30 -7 -47 -13 -18 -5 -33 -8 -33 -5 0 3 -9 0 -20 -6 -15 -8 -20 -8 -20 2
0 8 -3 9 -8 3 -9 -12 -10 -13 -118 -21 -107 -8 -126 -8 -184 0 -25 3 -58 8
-73 10 -16 2 -34 9 -40 16 -9 10 -9 11 1 6 15 -9 228 -10 320 -1 101 10 286
49 390 84 101 34 257 106 312 145 38 27 40 28 40 21z m-1475 -45 c8 -13 -34
-53 -182 -170 -20 -16 -30 -12 -35 14 -4 21 7 32 88 86 52 34 96 66 100 71 7
12 21 12 29 -1z"/>
<path d="M2515 3804 c-279 -244 -283 -247 -295 -224 -29 54 -94 103 -140 104
-10 1 -15 11 -15 29 0 38 -28 57 -84 57 -90 0 -162 -70 -331 -325 -71 -107
-164 -239 -185 -261 -34 -36 -102 -120 -112 -138 -16 -28 -16 -36 2 -36 30 0
157 147 298 344 155 218 247 324 255 293 5 -26 -4 -60 -25 -84 -46 -55 -53
-64 -53 -72 0 -4 -9 -16 -20 -26 -11 -10 -20 -24 -20 -31 0 -7 -4 -14 -8 -16
-5 -1 -36 -43 -68 -93 -32 -49 -61 -92 -64 -95 -3 -3 -18 -24 -33 -46 -15 -23
-64 -84 -107 -135 -44 -52 -80 -101 -80 -109 1 -14 31 -47 73 -79 15 -12 24
-6 85 56 37 38 76 80 87 94 38 47 102 134 113 156 7 12 18 27 25 35 7 7 23 30
36 51 12 20 27 37 32 37 6 0 7 5 4 10 -3 6 -1 10 4 10 20 0 6 -65 -19 -91
-205 -215 -532 -654 -516 -694 7 -18 31 -20 46 -2 6 6 39 55 73 107 97 147
163 232 335 427 54 61 82 87 83 76 1 -10 3 -28 4 -40 1 -12 -6 -31 -16 -42
-10 -10 -15 -22 -12 -25 4 -3 2 -6 -4 -6 -6 0 -43 -39 -82 -87 -94 -115 -92
-112 -126 -158 -16 -22 -32 -42 -35 -45 -3 -3 -9 -13 -15 -22 -5 -9 -47 -71
-93 -138 l-83 -122 49 -49 c27 -27 54 -49 60 -49 6 0 19 14 29 30 9 17 20 30
24 30 4 0 10 11 13 25 4 14 11 25 16 25 6 0 10 6 10 13 0 7 11 24 25 39 14 15
25 30 25 33 0 11 118 163 220 284 l28 33 12 -23 c23 -44 228 -251 241 -244 4
3 10 2 13 -3 7 -12 82 -5 135 13 26 8 71 31 100 50 29 19 55 35 58 35 3 0 16
11 29 25 13 14 25 24 27 23 4 -3 99 84 131 120 12 13 46 50 76 82 111 118 110
116 57 173 -45 47 -62 48 -95 4 -33 -43 -184 -197 -220 -225 -13 -9 -36 -29
-53 -43 -57 -51 -149 -91 -203 -90 -22 0 -36 12 -20 18 106 38 488 402 470
448 -9 25 -20 18 -82 -47 -176 -186 -274 -271 -354 -307 -53 -24 -66 -26 -68
-8 -6 44 -8 235 -3 249 3 9 33 40 66 68 33 28 69 59 80 69 11 9 38 30 60 47
22 16 42 32 45 36 3 3 30 23 60 44 30 21 63 46 74 56 11 10 28 20 38 24 10 3
18 10 18 15 0 5 7 9 15 9 8 0 15 4 15 9 0 5 21 23 48 40 26 16 63 45 82 62 19
18 36 31 38 28 9 -12 34 51 29 73 -9 33 -96 118 -122 118 -11 0 -44 -23 -73
-50 -30 -27 -70 -62 -89 -77 -19 -15 -45 -37 -57 -48 -50 -45 -127 -112 -172
-150 -26 -22 -60 -53 -76 -69 -15 -16 -28 -25 -28 -21 0 5 -7 0 -15 -11 -14
-18 -15 -17 -12 16 3 33 14 43 167 157 269 200 311 234 319 256 14 35 -22 88
-57 87 -4 0 -56 -44 -117 -96z"/>
<path d="M2873 2951 c-82 -23 -83 -114 -2 -156 16 -9 29 -21 29 -28 0 -13 26
-42 87 -98 38 -35 98 -55 109 -37 3 5 9 6 14 3 15 -10 70 52 70 80 0 28 -92
135 -116 135 -8 0 -14 5 -14 10 0 6 -6 10 -14 10 -8 0 -17 10 -20 23 -12 43
-87 74 -143 58z"/>
</g>
</svg>
